<svg width="261" height="269" viewBox="0 0 261 269" fill="none" xmlns="http://www.w3.org/2000/svg">
<path fill-rule="evenodd" clip-rule="evenodd" d="M131.91 113.335C133.621 113.401 135.359 113.569 137.094 113.829C139.177 114.144 141.203 114.587 143.148 115.129L143.963 109.587C143.963 109.587 154.792 107.536 156.47 104.92C158.151 102.308 170.659 67.7786 170.659 60.4995C170.659 53.2203 126.037 43.5147 124.356 49.4878C122.675 55.461 120.994 93.9088 121.063 97.0811C121.132 100.253 131.704 107.907 131.704 107.907L130.757 113.299C131.14 113.308 131.524 113.323 131.907 113.338L131.91 113.335ZM149.24 97.5184L158.097 63.4561L155.505 60.4995L146.815 93.6721L149.237 97.5184H149.24ZM148.757 58.9964L142.165 92.411C140.994 92.1782 140.338 92.0477 139.168 91.8149C141.395 78.7935 142.644 71.4929 144.871 58.4715L148.757 58.9964ZM135.431 59.1634C135.108 61.6258 130.487 93.2587 130.487 93.2587L133.933 90.4669C133.933 90.4669 138.404 59.9782 138.728 57.5159L135.431 59.1634Z" fill="#143CC9"/>
<path d="M128.595 170.148C132.191 172.545 131.591 171.796 133.689 173.743L128.595 208.5L111.322 206.393L118.706 177.868L121.103 164.906C121.103 164.906 124.25 166.853 128.595 170.148Z" fill="#143CC9"/>
<path d="M131.708 243.538C192.362 243.538 241.531 194.385 241.531 133.751C241.531 73.1176 192.362 23.9644 131.708 23.9644C71.0536 23.9644 21.8839 73.1176 21.8839 133.751C21.8839 194.385 71.0536 243.538 131.708 243.538Z" stroke="#143CC9" stroke-width="21"/>
<path d="M155.561 168.144C149.909 160.422 139.424 153.116 132.487 148.278C131.313 147.46 130.252 146.726 129.353 146.076C126.743 144.198 123.483 139.591 125.844 135.217C127.438 132.261 130.518 131.113 135.022 131.79C136.467 132.009 138.022 132.423 139.661 133.013C145.354 135.068 149.457 138.081 151.779 139.792C152.067 140.007 152.426 140.079 152.777 140.004C153.118 139.92 153.43 139.699 153.622 139.375L161.5 126.324C161.847 125.754 161.758 125.003 161.287 124.553C157.649 121.051 148.126 115.231 136.829 113.53C135.196 113.284 133.56 113.128 131.948 113.065C122.793 112.697 113.387 113.898 106.582 125.131C102.342 132.12 101.083 140.522 103.286 147.05C105.62 154.164 110.633 157.945 116.983 162.719L117.801 163.34C122.389 166.751 127.923 170.61 131.561 173.147C136.925 177.017 138.274 182.658 136.455 185.662C133.524 190.506 128.595 190.925 120.741 187.196C113.792 183.997 107.984 177.044 106.378 174.992C106.138 174.687 105.785 174.507 105.398 174.501C105.021 174.498 104.655 174.678 104.4 174.971L93.2353 188.283C92.8128 188.787 92.7768 189.53 93.1544 190.054C97.0769 195.536 100.442 198.888 106.48 203.318C110.543 206.299 116.791 208.662 123.198 209.627C129.895 210.636 146.496 211.442 155.977 197.219C162.03 188.116 161.877 177.538 155.561 168.141V168.144Z" fill="#4A9AF8"/>
<path d="M140.355 132.742C138.634 132.1 136.999 131.648 135.482 131.411C131.924 130.854 129.214 131.426 127.375 133.115L121.061 165.654C120.462 168.05 123.132 168.12 124.456 169.107C125.369 169.793 126.184 170.159 127.375 171.017L129.901 172.633L131.373 173.368C132.86 174.444 133.497 176.438 133.796 172.633L140.538 132.816C140.509 132.804 140.476 132.795 140.447 132.782C140.417 132.77 140.384 132.758 140.355 132.749V132.742Z" fill="#143CC9"/>
</svg>
